<svg version="1.2" xmlns="http://www.w3.org/2000/svg" viewBox="0 0 24 24" width="24" height="24"><style></style><path  d="m2.6 5.1h-1.7q-0.4 0-0.6-0.2-0.3-0.3-0.3-0.6 0-0.4 0.3-0.6 0.2-0.3 0.6-0.3h6.8v-2.5q0-0.2 0.1-0.4 0-0.1 0.2-0.3 0.1-0.1 0.2-0.1 0.2-0.1 0.4-0.1h6.8q0.2 0 0.4 0.1 0.1 0 0.2 0.1 0.2 0.2 0.2 0.3 0.1 0.2 0.1 0.4v2.5h6.8q0.4 0 0.6 0.3 0.3 0.2 0.3 0.6 0 0.3-0.3 0.6-0.2 0.2-0.6 0.2h-1.7v18q0 0.2 0 0.4-0.1 0.1-0.2 0.2-0.1 0.2-0.3 0.2-0.2 0.1-0.3 0.1h-17.2q-0.1 0-0.3-0.1-0.2 0-0.3-0.2-0.1-0.1-0.2-0.2 0-0.2 0-0.4zm12-1.7v-1.7h-5.2v1.7zm-10.3 18.9h15.5v-17.2h-15.5zm5.2-3.4q-0.2 0-0.3-0.1-0.2 0-0.3-0.1-0.1-0.2-0.2-0.3-0.1-0.2-0.1-0.3v-8.6q0-0.4 0.3-0.6 0.2-0.3 0.6-0.3 0.3 0 0.6 0.3 0.2 0.2 0.2 0.6v8.6q0 0.1 0 0.3-0.1 0.1-0.2 0.3-0.1 0.1-0.3 0.1-0.1 0.1-0.3 0.1zm5.1 0q-0.1 0-0.3-0.1-0.2 0-0.3-0.1-0.1-0.2-0.2-0.3 0-0.2 0-0.3v-8.6q0-0.4 0.2-0.6 0.3-0.3 0.6-0.3 0.4 0 0.6 0.3 0.3 0.2 0.3 0.6v8.6q0 0.1-0.1 0.3 0 0.1-0.2 0.3-0.1 0.1-0.2 0.1-0.2 0.1-0.4 0.1z"/></svg>